        <svg
          xmlns="http://www.w3.org/2000/svg"
          width="47"
          height="62"
          viewBox="0 0 47 62"
        >
          <style>
            .st0 {
              fill: #fff;
            }
            .st1 {
              fill: #005a9c;
            }
          </style>
          <path
            class="st1"
            d="M46.602.088v32.825c.123 3.52-.053 7.09-1.541 10.029C40.688 51.412 32.007 58.727 23.449 62c-3.412-1.384-6.684-3.116-9.712-5.426-4.06-3.1-7.963-7.21-10.531-11.429C1.523 42.625.56 39.79.404 36.624L.367 0l46.235.088z"
          ></path>
          <path
            class="st0"
            d="M25.916 1.26c-.139 1.19-1.173 2.345-2.311 2.779-.945.368-2.011.246-3.059.265l-.037-.054V1.24c.7.299 1.314.98 1.612 1.662h.069a3.852 3.852 0 0 1 3.726-1.642m-6.3.627v1.227l-.491.524-1.187.019c-.089.122-.067.314-.034.419l1.138.054.626.647.019 3.518h-1.7L17.97 5.11c-.122-.123-.296-.035-.453-.069-.034 1.03.019 2.201-.034 3.254h-2.59l2.29-1.539-.034-2.766c-.122-.074-.313-.038-.435-.02-.055.647.018 1.382-.071 1.995l-.209.157-.037-3.639a41.961 41.961 0 0 1 1.801-1.243h.771l.647.647zm7.301.579l-.056-.07.037-1.156 1.816.02zm-12.689.229V1.294c.754.02 1.4-.053 2.17-.035l-2.17 1.436zm.019.732l-.019-.296 2.817-1.871.015.297zm15.137-.525v3.08l-.245.176-.037-3.972c.07-.069.178-.087.245-.157.037.139.016.349.09.489L31.36 1.26h.42l-2.396 1.642zm5.005-.839c.138-.246-.075-.507-.075-.771h.197c.209.264.348.545.577.771.228-.177-.07-.456-.037-.716v-.054l2.102-.033-.735 1.661H33.25V1.26c.647-.21.718.627 1.139.803m4.127-.77c-1.381 1.628-2.695 3.796-1.783 6.021.156.245.387.333.629.383.298.035.544-.123.686-.366.066-.174.049-.438-.09-.561-.264-.314-.803-.191-1.138-.104a3.895 3.895 0 0 1-.053-1.279h1.995c-.053 1.036.334 2.503-.912 2.943-.329.068-.715.033-1.016-.142-1.05-.874-.716-2.521-.524-3.708.3-1.123.632-2.24 1.228-3.221.33.016.664-.018.978.034m-25.215 1.05l-2.835.035c-.035.141-.089.317-.035.438l2.345.052.524.524v1.193l-.473.489h-1.504c-.107.087-.123.278-.056.421l.105.05h1.927l.052 2.731c-.576.104-1.049-.02-1.663.018l-.052-1.961c-.14 0-.524-.141-.436.177.034.608.015 1.153.015 1.767H8.594l2.274-1.521.035-.21c-.054-.844-.035-1.718-.103-2.556-.088-.073-.246-.039-.353-.02-.052.646.019 1.313-.07 1.976l-.209.123-.037-3.235-.12-.069c-.703.367-1.349.872-2.05 1.274v-.26c.701-.456 1.418-.893 2.068-1.401.069-.157-.162-.157-.229-.278l-1.137-.753c1.523-.018 3.046-.053 4.621-.033l.017 1.029z"
          ></path>
          <path
            class="st0"
            d="M32.391 1.557L29.909 3.2l-.022-.264 2.471-1.623c.069.034.015.157.033.244m-3.029-.228c.039.053.021.141.021.21a54.862 54.862 0 0 1-2.485 1.608v-.226c.822-.525 1.627-1.121 2.464-1.592M39.777 2.99l-.019-1.662 2.504.019zm5.355-1.206c.106.226.019.472-.104.666a.788.788 0 0 1-.755.226c-.138-.053-.225-.279-.402-.191v.962c.402.089.893.034 1.329.054.039.629.019 1.276.019 1.922-1.031.737-2.1 1.384-3.168 2.065-.085-.122.09-.437-.141-.418-.329.403-.592.962-1.099 1.225-.244.104-.581.104-.789-.053-.226-.176-.277-.421-.277-.682.033-.245.223-.44.453-.544.193-.02.35-.054.523.02.09.068.139.172.262.137.073-.297.034-.646.02-.945-.369-.122-.823-.051-1.244-.067V4.197l3.118-2.012c.067.123-.074.456.12.472h.087c.21-.595.806-1.206 1.419-1.329a.74.74 0 0 1 .629.456m-35.611.579c-.44.402-1.034.717-1.56 1.064l-.015-2.08 1.575 1.016zm-2.52-.927C6.823 2.52 5.847 3.638 4.779 4.039c-.893.403-2.05.281-3.046.265-.034-.944-.019-1.94-.019-2.868.703.172 1.279.892 1.507 1.554.263-.157.454-.47.715-.699.858-.683 1.911-1.016 3.065-.855m35.909.225l-3.151 2.1V3.5l3.132-2.084c.035.069.019.158.019.245"
          ></path>
          <path
            class="st1"
            d="M25.532 1.643c-.071.402-.369.735-.632 1.068-.733.771-1.626 1.121-2.624 1.226-.052-.02-.104-.035-.141-.089.264-1.049 1.369-1.977 2.417-2.171.314-.034.648-.084.98-.034m-18.899.21c-.614 1.383-2.047 2.049-3.468 2.1.246-1.085 1.369-1.957 2.419-2.168.298-.069.681-.035.994-.019l.055.087zm2.415.525c-.209.228-.543.368-.789.559-.067-.313-.034-.77-.018-1.099.264.191.544.329.807.54m9.887-.349a.543.543 0 0 1 .123.595.665.665 0 0 1-.384.366c-.211.068-.386-.034-.564-.123-.156-.191-.261-.489-.123-.716.108-.142.246-.299.424-.313a.525.525 0 0 1 .524.191M2.905 3.883l-.052.068-.823-.034c0-.646-.123-1.383.018-2.03.611.491.857 1.225.857 1.996m18.583-1.188c.178.364.264.786.264 1.241h-.893l-.018-1.996c.3.141.474.491.647.755"
          ></path>
          <path
            class="st0"
            d="M32.148 6.021c-.09-1.227-.037-2.608-.056-3.835l.298-.191.036 3.78-.278.246zm6.614-1.58c-.56.073-1.172.038-1.731.021.331-.878.838-1.716 1.589-2.381l.09.087.052 2.273zM31.78 6.265l-1.262.82c-.032-1.294-.086-2.521-.032-3.831l1.26-.842c.069 1.244.016 2.628.034 3.853m-3.044.173l-1.172.77c-.07-1.276-.036-2.658-.036-3.987l1.186-.771c.074 1.328.056 2.678.022 3.988M6.808 3.025v3.153l.297-.196-.036-3.325zm18.829.106l.051 2.905.318-.228-.037-3.151zm-9.556 3.238c-.417.278-.856.543-1.261.838l-.048-3.692 1.276-.839c.07 1.314.051 2.344.033 3.693M36.31 3.254c0 .09-.05.158-.067.246h-3.011l.019-.246h3.059zM9.818 6.265c-.42.329-.856.61-1.295.854l-.036-2.99 1.297-.839.034 2.975z"
          ></path>
          <path
            class="st1"
            d="M12.721 3.745c.089.207.018.452-.105.627-.173.178-.454.212-.681.123-.208-.068-.316-.279-.349-.47-.056-.265.141-.456.313-.579.298-.157.665-.019.822.299"
          ></path>
          <path
            class="st0"
            d="M24.081 7.118c-.052-.907-.088-1.906-.052-2.849.488-.158.908-.491 1.314-.843l.032 2.819-1.294.873zM6.477 6.402l-1.28.839-.015-2.956c.436-.21.872-.471 1.258-.84.071.949.015 2.032.037 2.957m20.734 1.035l-.278.191c-.071-1.259-.034-2.66-.034-3.99l.265-.191c.047 1.329.083 2.643.047 3.99m2.906-3.922c.016 1.295.089 2.54.034 3.815-.086.053-.142.141-.244.122V3.638c.07-.034.143-.103.21-.123m-15.61 3.903l-.261.142-.017-3.676.23-.158c.015 1.156.067 2.502.048 3.692m20.544-1.016l-1.187.806c-.091-1.118-.019-2.222-.074-3.36.402-.068.911-.053 1.261-.016v2.57zm-1.522.981a.578.578 0 0 1-.279.212V3.832h.227l.052 3.551zm1.89-3.55l.034 2.309.298-.21-.016-2.099z"
          ></path>
          <path
            class="st1"
            d="M43.066 4.584c.07.175.034.385-.052.544a.575.575 0 0 1-.563.26c-.208-.015-.401-.176-.486-.367-.069-.156-.056-.402.067-.54.107-.16.265-.211.419-.246a.64.64 0 0 1 .615.349"
          ></path>
          <path
            class="st0"
            d="M8.174 7.383c-.071 0-.123.068-.175.104l-.052-2.99.227-.157v3.043zm15.539-.033l-.175.138c-.089-.962-.019-2.03-.071-3.008.071-.037.227-.123.246-.019V7.35zm-18.865.137c-.068.037-.139.108-.21.123V4.479c.071-.018.121-.072.209-.072v3.08zm15.888-.069c-.067.034-.119.107-.209.107V4.584a.221.221 0 0 1 .209 0v2.834zm1.645-2.855c.073.564.035 1.173.018 1.736l-1.279.873c-.123-.821-.067-1.75-.048-2.608h1.309zm.353 0l.016 1.492.263-.177-.034-1.315zm-21.02.04l.018 2.938.194-.124-.018-2.814zm1.82 0c.036.575.019 1.171.019 1.748l-1.28.839-.016-2.587h1.277zm.598 1.343l-.263.196c-.015-.508-.038-1.068.033-1.539h.208l.022 1.343zm34.596-.925c-.632.068-1.262-.035-1.895 0l.075-.226h1.819v.226zm6.49 1.137L42.05 8.242l-.018-.314 3.15-2.051c.073.055.017.191.036.281m-19.212.456c-.826.559-1.646 1.137-2.502 1.662v-.333l2.502-1.662v.333zm-2.993.052l-2.451 1.628c-.069-.072-.016-.228-.034-.351.822-.54 1.644-1.119 2.485-1.644v.367zm9.415-.019L29.96 8.275c-.089-.068-.033-.226-.053-.333.84-.56 1.68-1.118 2.521-1.643v.348zm-28.281.037L1.749 8.275c-.068-.068-.016-.245-.035-.368L4.11 6.334c.072.068.022.227.037.35m31.623-.089l-2.471 1.662c-.067-.051-.035-.191-.049-.296l2.486-1.628c.071.035.015.177.034.262M14.335 8.294h-.088v-.333l2.41-1.592v.386zm-3.959-1.593L8.014 8.257l-.015-.315 2.377-1.555c.105.069 0 .207 0 .314m-3.271-.035L4.672 8.257l-.033-.227 2.43-1.628c.073.054.019.177.036.264m22.313.035c-.826.559-1.663 1.068-2.501 1.593V8.03l2.444-1.593c.09.034.04.177.057.264m15.8 1.628h-2.623c.857-.611 1.751-1.171 2.623-1.715v1.715zm-9.467-.035h-1.978c.664-.455 1.329-.876 1.995-1.298l-.017 1.298zm-28.63-.053l-.052.035H5.164a36.732 36.732 0 0 1 1.942-1.261l.015 1.226zm25.307.034c-.562.088-1.279.02-1.928.02l1.91-1.278.018 1.258zm-9.4 0c-.613.036-1.243.02-1.868.02l1.853-1.261.015 1.241zm2.996 0c-.598.036-1.209.02-1.82.02.524-.421 1.188-.843 1.785-1.226.069.349.035.805.035 1.206m3.413.019H27.58l1.805-1.209c.084.333.032.805.052 1.209m-25.29-.019H2.329c.591-.401 1.189-.823 1.818-1.171v1.171zM2.8 20.964l.16-.019c.77-.367 1.538-.788 2.377-.997.47-.141 1.083-.052 1.417.35a.305.305 0 0 0-.192-.401l-.388-.107c.826-.438 1.594-1.1 2.278-1.784.911-.384 1.924-.315 2.956-.384.264-.158.613-.105.945-.122-.068.155-.28.14-.403.278-.297.314-.469.701-.748 1.05.245-.103.486-.402.68-.628.436-.422.894-.754 1.172-1.295 2.17-.123 4.094.611 6.144.873.893.84 2.117.824 3.148 1.295 2.222.999 4.655 1.613 7.211 1.662-.808-.313-1.804-.226-2.642-.489-1.402-.314-2.82-.575-4.079-1.188 1.101.208 2.327.051 3.447-.02l-.089.212c.245-.035.456-.314.721-.388 1.239-.683 2.869-.716 4.354-.54-.508.261-1.139.261-1.541.716 1.37-.436 2.785-.892 4.307-1.05 1.279-.228 2.503-.558 3.708-.926-.122.21-.277.418-.188.683.122.191.35.366.211.593-.442.333-1.104.157-1.662.229-.737.806-1.928.613-2.944.82-1.536.175-2.66 1.383-4.163 1.647-.124.068-.283.087-.35.224.509-.171 1.102-.242 1.626-.417 1.561-.979 3.359-1.382 5.232-1.592.179-.069.386-.107.524-.299.476 1.068 1.63 1.436 2.485 2.117.265.088.524.158.805.19l.037-.048c-1.121-.632-2.591-1.035-3.116-2.417.666.034 1.503.053 1.928-.545.171-.436-.491-.313-.388-.732.087-.228.266-.403.421-.577.157.138.28.35.313.561.369.348.771.646 1.206.822.354.437.893.683 1.368.979.875.909 1.942 1.469 3.026 1.957l.033-2.186V9.394l1.068.019-.086 26.811c.141 3.868-1.435 7.085-3.641 10.007-4.69 6.373-11.2 11.552-18.042 14.315C15.665 57.414 7.858 50.71 3.5 43.134c-1.064-2.081-1.767-4.338-1.752-6.844l.021-12.825-.021-14.14 1.059.019-.007 11.62z"
          ></path>
          <path
            class="st1"
            d="M44.116 30.29c-.016 2.574.033 5.338-.139 8.016-.477 4.025-3.151 7.14-5.723 10.288-4.306 4.813-9.345 8.507-14.806 10.869-7.595-3.256-15.294-9.925-19.372-17.43-.667-1.573-1.173-3.202-1.258-5.025V22.941l.052-.105 41.245.051v7.403z"
          ></path>
          <path
            class="st0"
            d="M29.451 33.736c2.05-.961 4.06-1.996 6.072-3.024l6.072 3.08.034.048-.034 1.211-6.055-3.064-6.072 3.028-6-3.01-6.089 3.025-6.054-3.025-6.021 3.01.033-1.313 5.965-2.99 6.076 3.024 6.018-3.045 6.055 3.045z"
          ></path>
          <path
            class="st0"
            d="M35.523 33.702l6.039 3.1c.035.382.035.856 0 1.274l-6.039-3.062-6.054 3.046-5.986-3.046-6.104 3.081-6.054-3.045-5.987 3.025-.019.02v-1.313l5.984-3.046 6.002 3.011c2.064-.98 4.078-2.03 6.125-3.063l6.095 3.063 5.998-3.045z"
          ></path>
          <path
            class="st0"
            d="M41.545 41.032l-6.022-3.044-6.071 3.044-5.968-2.972c-2.044.98-4.094 2.012-6.122 3.045l-6.037-3.045-6.005 2.993h-.036l.036-1.263 5.983-3.008 6.002 2.991 6.125-3.061 6.021 3.01 6.055-3.079 6.057 3.096-.018 1.293z"
          ></path>
        </svg>